<?xml version="1.0" encoding="utf-8"?>
<!-- Generator: Adobe Illustrator 12.0.0, SVG Export Plug-In . SVG Version: 6.00 Build 51448)  -->
<!DOCTYPE svg PUBLIC "-//W3C//DTD SVG 1.1//EN" "http://www.w3.org/Graphics/SVG/1.1/DTD/svg11.dtd" [
	<!ENTITY ns_svg "http://www.w3.org/2000/svg">
	<!ENTITY ns_xlink "http://www.w3.org/1999/xlink">
]>
<svg  version="1.1" id="Layer_2" xmlns="&ns_svg;" xmlns:xlink="&ns_xlink;" width="164.323" height="106.466"
	 viewBox="0 0 164.323 106.466" overflow="visible" enable-background="new 0 0 164.323 106.466" xml:space="preserve">
<g>
	<g>
		<path fill="#07519F" stroke="#073C93" d="M122.323,18.031c-13.334,5.5-34.662,20.189-40.162,25.189
			c-5.5-5-26.827-19.689-40.161-25.189c-13.333-5.5-41.333-15.333-41.5-18v26c0.167,2.667,28.167,12.5,41.5,18
			c13.334,5.5,34.661,20.166,40.161,25.166c5.502-5,26.828-19.666,40.162-25.166s41.334-15.333,41.5-18v-26
			C163.657,2.698,135.657,12.531,122.323,18.031z M160.286,23.093c-7.209,3.995-27.021,11.426-37.963,15.938
			c-13.334,5.5-34.66,20.166-40.162,25.166c-5.5-5-26.827-19.666-40.161-25.166C31.06,34.519,11.247,27.088,4.036,23.093V7.097
			C11.253,11.092,31.063,18.52,42,23.031c13.334,5.5,34.661,20.166,40.161,25.166c5.502-5,26.828-19.666,40.162-25.166
			c10.938-4.512,30.748-11.939,37.963-15.935V23.093z"/>
		<path fill="#B2B2B2" stroke="#073C93" d="M82.161,48.197c-5.5-5-26.827-19.666-40.161-25.166
			C31.063,18.52,11.253,11.092,4.036,7.097v15.996C11.247,27.088,31.06,34.519,42,39.031c13.334,5.5,34.661,20.166,40.161,25.166
			c5.502-5,26.828-19.666,40.162-25.166c10.941-4.513,30.754-11.943,37.963-15.938V7.097c-7.215,3.995-27.025,11.423-37.963,15.935
			C108.989,28.531,87.663,43.197,82.161,48.197z"/>
	</g>
	<g>
		<g>
			<path fill="#B2B2B2" stroke="#8C8C8C" d="M126.669,15.218l-12-12.667H49.654l-12,12.667c5.833,5.333,7,17.5,7.166,28.667
				c0.167,11.166-1.166,14.666-2.833,25.832C40.32,80.885,54.154,86.551,61.154,90.051s18.508,11.668,21.008,15.5
				c2.499-3.832,14.007-12,21.007-15.5s20.834-9.166,19.168-20.334c-1.668-11.166-3-14.666-2.834-25.832
				C119.669,32.718,120.835,20.551,126.669,15.218z M117.187,62.994l1.193,7.314c0.059,0.395,0.088,0.783,0.088,1.162
				c0,6.143-7.482,10.322-15.213,14.082l-1.875,0.92c-5.377,2.689-14.109,8.496-19.218,13.219
				c-5.109-4.723-13.842-10.529-19.219-13.219l-1.876-0.92c-7.729-3.76-15.212-7.939-15.212-14.082c0-0.379,0.028-0.768,0.088-1.162
				l1.193-7.314c0.975-5.654,1.697-9.857,1.697-17.308c0-0.598-0.004-1.218-0.014-1.861c-0.145-9.685-1.016-21.202-5.839-28.415
				c2.705-2.855,6.901-7.285,8.394-8.859c3.172,0,58.401,0,61.573,0c1.492,1.575,5.688,6.004,8.395,8.859
				c-4.824,7.212-5.695,18.73-5.84,28.415c-0.01,0.643-0.014,1.263-0.014,1.861C115.489,53.137,116.212,57.34,117.187,62.994z"/>
			<path fill="#7CA3E6" stroke="#8C8C8C" d="M121.343,15.411c-2.707-2.855-6.902-7.285-8.395-8.859c-3.172,0-58.401,0-61.573,0
				c-1.492,1.575-5.688,6.004-8.394,8.859c4.823,7.212,5.694,18.73,5.839,28.415c0.01,0.643,0.014,1.263,0.014,1.861
				c0,7.451-0.723,11.654-1.697,17.308l-1.193,7.314c-0.06,0.395-0.088,0.783-0.088,1.162c0,6.143,7.482,10.322,15.212,14.082
				l1.876,0.92c5.377,2.689,14.109,8.496,19.219,13.219c5.108-4.723,13.841-10.529,19.218-13.219l1.875-0.92
				c7.73-3.76,15.213-7.939,15.213-14.082c0-0.379-0.029-0.768-0.088-1.162l-1.193-7.314c-0.975-5.654-1.697-9.857-1.697-17.308
				c0-0.598,0.004-1.218,0.014-1.861C115.647,34.141,116.519,22.623,121.343,15.411z"/>
		</g>
		<path fill="#B2B2B2" stroke="#8C8C8C" d="M92.487,34.176v5.375c-4.875,0-5.875,36.75-5.875,36.75s2.375-0.5,2.25,3
			s-2.625,4-5.251,4h-0.125c-2.625,0-5.125-0.5-5.25-4s2.25-3,2.25-3s-1-36.75-5.875-36.75v-5.375H92.487z"/>
		<path fill="#FF7F00" stroke="#E87F00" d="M92.487,34.176H74.611c0,0-1.938-0.688-1.938-3.375s0.875-3.25,3.375-3.938
			s4.625-9.313-5.063-9.625c-0.499-0.016,25.126-3.134,25.126,10.125C96.112,34.301,92.487,34.176,92.487,34.176z"/>
	</g>
</g>
</svg>
