<?xml version="1.0" encoding="utf-8"?>
<!-- Generator: Adobe Illustrator 12.0.0, SVG Export Plug-In . SVG Version: 6.00 Build 51448)  -->
<!DOCTYPE svg PUBLIC "-//W3C//DTD SVG 1.1//EN" "http://www.w3.org/Graphics/SVG/1.1/DTD/svg11.dtd" [
	<!ENTITY ns_svg "http://www.w3.org/2000/svg">
	<!ENTITY ns_xlink "http://www.w3.org/1999/xlink">
]>
<svg  version="1.1" id="Layer_1" xmlns="&ns_svg;" xmlns:xlink="&ns_xlink;" width="151.666" height="277.856"
	 viewBox="0 0 151.666 277.856" overflow="visible" enable-background="new 0 0 151.666 277.856" xml:space="preserve">
<g id="Layer_2">
	<polygon fill="#BDBEC0" points="150.166,92.355 150.166,184.356 150.166,276.356 75.833,276.356 1.5,276.356 1.5,184.356 
		1.5,92.355 75.833,2.355 	"/>
	<path fill="#07519F" d="M9.5,95.231c0,5.399,0,159.787,0,173.125c12.741,0,119.927,0,132.667,0c0-13.338,0-167.726,0-173.125
		c-3.188-3.861-56.236-68.091-66.333-80.314C65.738,27.142,12.689,91.371,9.5,95.231z"/>
	<polygon fill="#BDBEC0" points="150.166,223.356 75.833,133.355 1.5,223.356 1.5,192.356 75.833,102.355 150.166,192.356 	"/>
	<polygon fill="none" stroke="#07519F" stroke-width="3" points="150.166,92.355 150.166,184.356 150.166,276.356 75.833,276.356 
		1.5,276.356 1.5,184.356 1.5,92.355 75.833,2.355 	"/>
</g>
</svg>
