<?xml version="1.0" encoding="utf-8"?>
<!-- Generator: Adobe Illustrator 12.0.0, SVG Export Plug-In . SVG Version: 6.00 Build 51448)  -->
<!DOCTYPE svg PUBLIC "-//W3C//DTD SVG 1.1//EN" "http://www.w3.org/Graphics/SVG/1.1/DTD/svg11.dtd" [
	<!ENTITY ns_svg "http://www.w3.org/2000/svg">
	<!ENTITY ns_xlink "http://www.w3.org/1999/xlink">
]>
<svg  version="1.1" id="Layer_2" xmlns="&ns_svg;" xmlns:xlink="&ns_xlink;" width="164.365" height="150.707"
	 viewBox="0 0 164.365 150.707" overflow="visible" enable-background="new 0 0 164.365 150.707" xml:space="preserve">
<g>
	<g>
		<path fill="#07519F" stroke="#073C93" d="M163.865,0.031c-0.166,2.667-28.166,12.5-41.5,18S87.703,38.221,82.203,43.221
			c-5.5-5-26.827-19.689-40.161-25.189c-13.333-5.5-41.333-15.333-41.5-18v20.326C0.529,20.318,0.502,20.276,0.5,20.24v26
			c0.167,2.667,28.167,12.5,41.5,18c13.334,5.5,34.661,20.166,40.161,25.166c5.502-5,26.829-19.666,40.163-25.166
			s41.334-15.333,41.5-18V26.147c0.012-0.038,0.039-0.08,0.041-0.116V0.031z M42.042,23.031c13.334,5.5,34.661,20.166,40.161,25.166
			c5.502-5,26.828-19.666,40.162-25.166c10.938-4.512,30.748-11.939,37.963-15.935v15.716c-7.947,4.091-27.512,11.1-38.004,15.427
			c-13.334,5.5-34.662,20.19-40.163,25.19c-5.5-5-26.827-19.69-40.161-25.19C31.546,33.927,12.079,26.952,4.078,22.855V7.097
			C11.294,11.092,31.104,18.52,42.042,23.031z M122.324,59.24c-13.334,5.5-34.66,20.166-40.163,25.166
			c-5.5-5-26.827-19.666-40.161-25.166C31.06,54.727,11.247,47.296,4.036,43.301V28.603c7.947,4.091,27.513,11.1,38.005,15.428
			c13.334,5.5,34.661,20.166,40.161,25.166c5.502-5,26.828-19.666,40.162-25.166c10.454-4.313,29.92-11.287,37.922-15.384v14.654
			C153.078,47.296,133.265,54.727,122.324,59.24z"/>
		<path fill="#B2B2B2" stroke="#073C93" d="M82.161,68.406c-5.5-5-26.827-19.667-40.161-25.167
			C31.063,38.728,11.253,31.3,4.036,27.305v15.996C11.247,47.296,31.06,54.727,42,59.24c13.334,5.5,34.661,20.166,40.161,25.166
			c5.502-5,26.829-19.666,40.163-25.166c10.941-4.514,30.754-11.944,37.963-15.939V27.305c-7.215,3.995-27.025,11.423-37.963,15.935
			C108.99,48.74,87.664,63.406,82.161,68.406z"/>
	</g>
	<path fill="#B2B2B2" stroke="#073C93" d="M82.203,48.197c-5.5-5-26.827-19.666-40.161-25.166
		C31.104,18.52,11.294,11.092,4.078,7.097v15.996c7.211,3.995,27.023,11.426,37.964,15.938c13.334,5.5,34.661,20.166,40.161,25.166
		c5.502-5,26.828-19.666,40.162-25.166c10.941-4.513,30.754-11.943,37.963-15.938V7.097c-7.215,3.995-27.025,11.423-37.963,15.935
		C109.031,28.531,87.705,43.197,82.203,48.197z"/>
</g>
<g>
	<g>
		<path fill="#07519F" stroke="#073C93" d="M163.865,40.656c-0.166,2.667-28.166,12.5-41.5,18S87.703,78.846,82.203,83.846
			c-5.5-5-26.827-19.689-40.161-25.189c-13.333-5.5-41.333-15.333-41.5-18v20.326C0.529,60.943,0.502,60.9,0.5,60.865v26
			c0.167,2.666,28.167,12.5,41.5,18c13.334,5.5,34.661,20.166,40.161,25.166c5.502-5,26.829-19.666,40.163-25.166
			s41.334-15.334,41.5-18V66.771c0.012-0.037,0.039-0.08,0.041-0.115V40.656z M42.042,63.656
			c13.334,5.5,34.661,20.166,40.161,25.166c5.502-5,26.828-19.666,40.162-25.166c10.938-4.512,30.748-11.939,37.963-15.935v15.716
			c-7.947,4.091-27.512,11.1-38.004,15.428c-13.334,5.5-34.662,20.189-40.163,25.189c-5.5-5-26.827-19.689-40.161-25.189
			C31.546,74.553,12.079,67.577,4.078,63.48V47.722C11.294,51.717,31.104,59.145,42.042,63.656z M122.324,99.865
			c-13.334,5.5-34.66,20.166-40.163,25.166c-5.5-5-26.827-19.666-40.161-25.166C31.06,95.352,11.247,87.922,4.036,83.926V69.229
			c7.947,4.09,27.513,11.1,38.005,15.428c13.334,5.5,34.661,20.166,40.161,25.166c5.502-5,26.828-19.666,40.162-25.166
			c10.454-4.313,29.92-11.287,37.922-15.385v14.654C153.078,87.922,133.265,95.352,122.324,99.865z"/>
		<path fill="#B2B2B2" stroke="#073C93" d="M82.161,109.031c-5.5-5-26.827-19.666-40.161-25.166
			C31.063,79.354,11.253,71.926,4.036,67.93v15.996C11.247,87.922,31.06,95.352,42,99.865c13.334,5.5,34.661,20.166,40.161,25.166
			c5.502-5,26.829-19.666,40.163-25.166c10.941-4.514,30.754-11.943,37.963-15.939V67.93c-7.215,3.996-27.025,11.424-37.963,15.936
			C108.99,89.365,87.664,104.031,82.161,109.031z"/>
	</g>
	<path fill="#B2B2B2" stroke="#073C93" d="M82.203,88.822c-5.5-5-26.827-19.666-40.161-25.166
		C31.104,59.145,11.294,51.717,4.078,47.722v15.996c7.211,3.995,27.023,11.426,37.964,15.938
		c13.334,5.5,34.661,20.166,40.161,25.166c5.502-5,26.828-19.666,40.162-25.166c10.941-4.513,30.754-11.943,37.963-15.938V47.722
		c-7.215,3.995-27.025,11.423-37.963,15.935C109.031,69.156,87.705,83.822,82.203,88.822z"/>
</g>
<g id="extra">
	<path fill="#07519F" stroke="#073C93" d="M122.324,98.865c-13.334,5.5-34.662,20.189-40.163,25.189
		c-5.5-5-26.827-19.689-40.161-25.189c-13.333-5.5-41.333-15.334-41.5-18v26c0.167,2.666,28.167,12.5,41.5,18
		c13.334,5.5,34.661,20.166,40.161,25.166c5.502-5,26.829-19.666,40.163-25.166s41.334-15.334,41.5-18v-26
		C163.658,83.531,135.658,93.365,122.324,98.865z M160.287,103.926c-7.209,3.996-27.021,11.426-37.963,15.939
		c-13.334,5.5-34.66,20.166-40.163,25.166c-5.5-5-26.827-19.666-40.161-25.166c-10.94-4.514-30.753-11.943-37.964-15.939V87.93
		C11.253,91.926,31.063,99.354,42,103.865c13.334,5.5,34.661,20.166,40.161,25.166c5.502-5,26.829-19.666,40.163-25.166
		c10.938-4.512,30.748-11.939,37.963-15.936V103.926z"/>
	<path fill="#B2B2B2" stroke="#073C93" d="M82.161,129.031c-5.5-5-26.827-19.666-40.161-25.166
		C31.063,99.354,11.253,91.926,4.036,87.93v15.996c7.211,3.996,27.023,11.426,37.964,15.939c13.334,5.5,34.661,20.166,40.161,25.166
		c5.502-5,26.829-19.666,40.163-25.166c10.941-4.514,30.754-11.943,37.963-15.939V87.93c-7.215,3.996-27.025,11.424-37.963,15.936
		C108.99,109.365,87.664,124.031,82.161,129.031z"/>
</g>
<g>
	<g>
		<path fill="#B2B2B2" stroke="#8C8C8C" d="M126.71,20.292l-12-12.667H49.696l-12,12.667c5.833,5.333,7,17.5,7.166,28.667
			c0.167,11.166-1.166,14.666-2.833,25.832c-1.667,11.168,12.167,16.834,19.167,20.334s18.508,11.668,21.008,15.5
			c2.499-3.832,14.007-12,21.007-15.5s20.834-9.166,19.168-20.334c-1.668-11.166-3-14.666-2.834-25.832
			C119.71,37.792,120.876,25.625,126.71,20.292z M117.228,68.068l1.193,7.314c0.059,0.395,0.088,0.783,0.088,1.162
			c0,6.143-7.482,10.322-15.213,14.082l-1.875,0.92c-5.377,2.689-14.109,8.496-19.218,13.219
			c-5.109-4.723-13.842-10.529-19.219-13.219l-1.876-0.92c-7.729-3.76-15.212-7.939-15.212-14.082c0-0.379,0.028-0.768,0.088-1.162
			l1.193-7.314c0.975-5.654,1.697-9.857,1.697-17.308c0-0.598-0.004-1.218-0.014-1.861c-0.145-9.685-1.016-21.202-5.839-28.415
			c2.705-2.855,6.901-7.285,8.394-8.859c3.172,0,58.401,0,61.573,0c1.492,1.575,5.688,6.004,8.395,8.859
			c-4.824,7.212-5.695,18.73-5.84,28.415c-0.01,0.643-0.014,1.263-0.014,1.861C115.531,58.211,116.253,62.414,117.228,68.068z"/>
		<path fill="#7CA3E6" stroke="#8C8C8C" d="M121.384,20.485c-2.707-2.855-6.902-7.285-8.395-8.859c-3.172,0-58.401,0-61.573,0
			c-1.492,1.575-5.688,6.004-8.394,8.859c4.823,7.212,5.694,18.73,5.839,28.415c0.01,0.643,0.014,1.263,0.014,1.861
			c0,7.451-0.723,11.654-1.697,17.308l-1.193,7.314c-0.06,0.395-0.088,0.783-0.088,1.162c0,6.143,7.482,10.322,15.212,14.082
			l1.876,0.92c5.377,2.689,14.109,8.496,19.219,13.219c5.108-4.723,13.841-10.529,19.218-13.219l1.875-0.92
			c7.73-3.76,15.213-7.939,15.213-14.082c0-0.379-0.029-0.768-0.088-1.162l-1.193-7.314c-0.975-5.654-1.697-9.857-1.697-17.308
			c0-0.598,0.004-1.218,0.014-1.861C115.689,39.215,116.56,27.697,121.384,20.485z"/>
	</g>
	<path fill="#B2B2B2" stroke="#8C8C8C" d="M92.529,39.25v5.375c-4.875,0-5.875,36.75-5.875,36.75s2.375-0.5,2.25,3s-2.625,4-5.251,4
		h-0.125c-2.625,0-5.125-0.5-5.25-4s2.25-3,2.25-3s-1-36.75-5.875-36.75V39.25H92.529z"/>
	<path fill="#FF7F00" stroke="#E87F00" d="M92.529,39.25H74.653c0,0-1.938-0.688-1.938-3.375s0.875-3.25,3.375-3.938
		s4.625-9.313-5.063-9.625c-0.499-0.016,25.126-3.134,25.126,10.125C96.154,39.375,92.529,39.25,92.529,39.25z"/>
</g>
</svg>
