<?xml version="1.0" encoding="utf-8"?>
<!-- Generator: Adobe Illustrator 12.0.0, SVG Export Plug-In . SVG Version: 6.00 Build 51448)  -->
<!DOCTYPE svg PUBLIC "-//W3C//DTD SVG 1.1//EN" "http://www.w3.org/Graphics/SVG/1.1/DTD/svg11.dtd" [
	<!ENTITY ns_svg "http://www.w3.org/2000/svg">
	<!ENTITY ns_xlink "http://www.w3.org/1999/xlink">
]>
<svg  version="1.1" id="Layer_2" xmlns="&ns_svg;" xmlns:xlink="&ns_xlink;" width="164.365" height="218.352"
	 viewBox="0 0 164.365 218.352" overflow="visible" enable-background="new 0 0 164.365 218.352" xml:space="preserve">
<g id="extra_3_">
	<path fill="#07519F" stroke="#073C93" d="M163.824,69.842v-26c-0.166-2.666-28.166-12.5-41.5-18S87.664,5.676,82.161,0.676
		c-5.5,5-26.827,19.666-40.161,25.166c-13.333,5.5-41.333,15.334-41.5,18v26c0.167-2.666,28.167-12.5,41.5-18
		c13.334-5.5,34.661-20.189,40.161-25.189c5.5,5,26.829,19.689,40.163,25.189S163.658,67.176,163.824,69.842z M160.287,62.777
		c-7.215-3.996-27.025-11.424-37.963-15.936c-13.334-5.5-34.66-20.166-40.163-25.166c-5.5,5-26.827,19.666-40.161,25.166
		C31.063,51.354,11.253,58.781,4.036,62.777V46.781C11.247,42.785,31.06,35.355,42,30.842c13.334-5.5,34.661-20.166,40.161-25.166
		c5.502,5,26.829,19.666,40.163,25.166c10.941,4.514,30.754,11.943,37.963,15.939V62.777z"/>
	<path fill="#B2B2B2" stroke="#073C93" d="M82.161,21.676c-5.5,5-26.827,19.666-40.161,25.166
		C31.063,51.354,11.253,58.781,4.036,62.777V46.781C11.247,42.785,31.06,35.355,42,30.842c13.334-5.5,34.661-20.166,40.161-25.166
		c5.502,5,26.829,19.666,40.163,25.166c10.941,4.514,30.754,11.943,37.963,15.939v15.996c-7.215-3.996-27.025-11.424-37.963-15.936
		C108.99,41.342,87.664,26.676,82.161,21.676z"/>
</g>
<g>
	<path fill="#07519F" stroke="#073C93" d="M82.161,26.652c-5.5,5-26.827,19.689-40.161,25.189
		C30.1,56.751,6.532,65.108,1.482,68.744c4.963,3.621,28.627,12.009,40.56,16.932c13.334,5.5,34.661,20.189,40.161,25.189
		c5.5-5,26.828-19.689,40.162-25.189c11.901-4.909,35.47-13.266,40.519-16.902c-4.963-3.62-28.626-12.009-40.56-16.932
		C108.99,46.342,87.662,31.652,82.161,26.652z"/>
</g>
<g>
	<g>
		<path fill="#07519F" stroke="#073C93" d="M163.865,67.676c-0.166,2.667-28.166,12.5-41.5,18s-34.662,20.189-40.162,25.189
			c-5.5-5-26.827-19.689-40.161-25.189c-13.333-5.5-41.333-15.333-41.5-18v20.326C0.529,87.963,0.502,87.92,0.5,87.884v26
			c0.167,2.666,28.167,12.5,41.5,18c13.334,5.5,34.661,20.166,40.161,25.166c5.502-5,26.829-19.666,40.163-25.166
			s41.334-15.334,41.5-18V93.792c0.012-0.038,0.039-0.08,0.041-0.116V67.676z M42.042,90.676
			c13.334,5.5,34.661,20.166,40.161,25.166c5.502-5,26.828-19.666,40.162-25.166c10.938-4.512,30.748-11.939,37.963-15.935v15.716
			c-7.947,4.091-27.512,11.1-38.004,15.427c-13.334,5.5-34.662,20.19-40.163,25.19c-5.5-5-26.827-19.689-40.161-25.19
			C31.546,101.572,12.079,94.597,4.078,90.5V74.741C11.294,78.736,31.104,86.164,42.042,90.676z M122.324,126.885
			c-13.334,5.5-34.66,20.166-40.163,25.166c-5.5-5-26.827-19.666-40.161-25.166c-10.94-4.514-30.753-11.943-37.964-15.939V96.248
			c7.947,4.091,27.513,11.1,38.005,15.428c13.334,5.5,34.661,20.166,40.161,25.166c5.502-5,26.828-19.666,40.162-25.166
			c10.454-4.313,29.92-11.287,37.922-15.384v14.654C153.078,114.941,133.265,122.371,122.324,126.885z"/>
		<path fill="#B2B2B2" stroke="#073C93" d="M82.161,136.051c-5.5-5-26.827-19.666-40.161-25.166
			c-10.938-4.512-30.747-11.94-37.964-15.935v15.996c7.211,3.996,27.023,11.426,37.964,15.939
			c13.334,5.5,34.661,20.166,40.161,25.166c5.502-5,26.829-19.666,40.163-25.166c10.941-4.514,30.754-11.943,37.963-15.939V94.95
			c-7.215,3.995-27.025,11.423-37.963,15.935C108.99,116.385,87.664,131.051,82.161,136.051z"/>
	</g>
	<path fill="#B2B2B2" stroke="#073C93" d="M82.203,115.842c-5.5-5-26.827-19.666-40.161-25.166
		C31.104,86.164,11.294,78.736,4.078,74.741v15.996c7.211,3.995,27.023,11.426,37.964,15.938
		c13.334,5.5,34.661,20.166,40.161,25.166c5.502-5,26.828-19.666,40.162-25.166c10.941-4.513,30.754-11.943,37.963-15.938V74.741
		c-7.215,3.995-27.025,11.423-37.963,15.935C109.031,96.176,87.705,110.842,82.203,115.842z"/>
</g>
<g>
	<g>
		<path fill="#07519F" stroke="#073C93" d="M163.865,108.301c-0.166,2.667-28.166,12.5-41.5,18S87.703,146.49,82.203,151.49
			c-5.5-5-26.827-19.689-40.161-25.189c-13.333-5.5-41.333-15.333-41.5-18v20.326c-0.012-0.039-0.039-0.082-0.042-0.117v26
			c0.167,2.666,28.167,12.5,41.5,18c13.334,5.5,34.661,20.166,40.161,25.166c5.502-5,26.829-19.666,40.163-25.166
			s41.334-15.334,41.5-18v-20.094c0.012-0.037,0.039-0.08,0.041-0.115V108.301z M42.042,131.301
			c13.334,5.5,34.661,20.166,40.161,25.166c5.502-5,26.828-19.666,40.162-25.166c10.938-4.512,30.748-11.939,37.963-15.935v15.716
			c-7.947,4.091-27.512,11.1-38.004,15.428c-13.334,5.5-34.662,20.189-40.163,25.189c-5.5-5-26.827-19.689-40.161-25.189
			c-10.454-4.313-29.921-11.288-37.922-15.385v-15.759C11.294,119.361,31.104,126.789,42.042,131.301z M122.324,167.51
			c-13.334,5.5-34.66,20.166-40.163,25.166c-5.5-5-26.827-19.666-40.161-25.166c-10.94-4.514-30.753-11.943-37.964-15.939v-14.697
			c7.947,4.09,27.513,11.1,38.005,15.428c13.334,5.5,34.661,20.166,40.161,25.166c5.502-5,26.828-19.666,40.162-25.166
			c10.454-4.313,29.92-11.287,37.922-15.385v14.654C153.078,155.566,133.265,162.996,122.324,167.51z"/>
		<path fill="#B2B2B2" stroke="#073C93" d="M82.161,176.676c-5.5-5-26.827-19.666-40.161-25.166
			c-10.938-4.512-30.747-11.939-37.964-15.936v15.996C11.247,155.566,31.06,162.996,42,167.51
			c13.334,5.5,34.661,20.166,40.161,25.166c5.502-5,26.829-19.666,40.163-25.166c10.941-4.514,30.754-11.943,37.963-15.939v-15.996
			c-7.215,3.996-27.025,11.424-37.963,15.936C108.99,157.01,87.664,171.676,82.161,176.676z"/>
	</g>
	<path fill="#B2B2B2" stroke="#073C93" d="M82.203,156.467c-5.5-5-26.827-19.666-40.161-25.166
		c-10.938-4.512-30.747-11.939-37.964-15.935v15.996c7.211,3.995,27.023,11.426,37.964,15.938
		c13.334,5.5,34.661,20.166,40.161,25.166c5.502-5,26.828-19.666,40.162-25.166c10.941-4.513,30.754-11.943,37.963-15.938v-15.996
		c-7.215,3.995-27.025,11.423-37.963,15.935C109.031,136.801,87.705,151.467,82.203,156.467z"/>
</g>
<g id="extra">
	<path fill="#07519F" stroke="#073C93" d="M122.324,166.51c-13.334,5.5-34.662,20.189-40.163,25.189
		c-5.5-5-26.827-19.689-40.161-25.189c-13.333-5.5-41.333-15.334-41.5-18v26c0.167,2.666,28.167,12.5,41.5,18
		c13.334,5.5,34.661,20.166,40.161,25.166c5.502-5,26.829-19.666,40.163-25.166s41.334-15.334,41.5-18v-26
		C163.658,151.176,135.658,161.01,122.324,166.51z M160.287,171.57c-7.209,3.996-27.021,11.426-37.963,15.939
		c-13.334,5.5-34.66,20.166-40.163,25.166c-5.5-5-26.827-19.666-40.161-25.166c-10.94-4.514-30.753-11.943-37.964-15.939v-15.996
		C11.253,159.57,31.063,166.998,42,171.51c13.334,5.5,34.661,20.166,40.161,25.166c5.502-5,26.829-19.666,40.163-25.166
		c10.938-4.512,30.748-11.939,37.963-15.936V171.57z"/>
	<path fill="#B2B2B2" stroke="#073C93" d="M82.161,196.676c-5.5-5-26.827-19.666-40.161-25.166
		c-10.938-4.512-30.747-11.939-37.964-15.936v15.996C11.247,175.566,31.06,182.996,42,187.51
		c13.334,5.5,34.661,20.166,40.161,25.166c5.502-5,26.829-19.666,40.163-25.166c10.941-4.514,30.754-11.943,37.963-15.939v-15.996
		c-7.215,3.996-27.025,11.424-37.963,15.936C108.99,177.01,87.664,191.676,82.161,196.676z"/>
</g>
<g>
	<g>
		<path fill="#B2B2B2" stroke="#8C8C8C" d="M126.71,87.937l-12-12.667H49.696l-12,12.667c5.833,5.333,7,17.5,7.166,28.667
			c0.167,11.166-1.166,14.666-2.833,25.832c-1.667,11.168,12.167,16.834,19.167,20.334s18.508,11.668,21.008,15.5
			c2.499-3.832,14.007-12,21.007-15.5s20.834-9.166,19.168-20.334c-1.668-11.166-3-14.666-2.834-25.832
			C119.71,105.437,120.876,93.27,126.71,87.937z M117.228,135.713l1.193,7.314c0.059,0.395,0.088,0.783,0.088,1.162
			c0,6.143-7.482,10.322-15.213,14.082l-1.875,0.92c-5.377,2.689-14.109,8.496-19.218,13.219
			c-5.109-4.723-13.842-10.529-19.219-13.219l-1.876-0.92c-7.729-3.76-15.212-7.939-15.212-14.082c0-0.379,0.028-0.768,0.088-1.162
			l1.193-7.314c0.975-5.654,1.697-9.857,1.697-17.309c0-0.598-0.004-1.217-0.014-1.86c-0.145-9.685-1.016-21.202-5.839-28.415
			c2.705-2.855,6.901-7.285,8.394-8.859c3.172,0,58.401,0,61.573,0c1.492,1.575,5.688,6.004,8.395,8.859
			c-4.824,7.212-5.695,18.73-5.84,28.415c-0.01,0.644-0.014,1.263-0.014,1.86C115.531,125.855,116.253,130.059,117.228,135.713z"/>
		<path fill="#7CA3E6" stroke="#8C8C8C" d="M121.384,88.129c-2.707-2.855-6.902-7.285-8.395-8.859c-3.172,0-58.401,0-61.573,0
			c-1.492,1.575-5.688,6.004-8.394,8.859c4.823,7.212,5.694,18.73,5.839,28.415c0.01,0.644,0.014,1.263,0.014,1.86
			c0,7.451-0.723,11.654-1.697,17.309l-1.193,7.314c-0.06,0.395-0.088,0.783-0.088,1.162c0,6.143,7.482,10.322,15.212,14.082
			l1.876,0.92c5.377,2.689,14.109,8.496,19.219,13.219c5.108-4.723,13.841-10.529,19.218-13.219l1.875-0.92
			c7.73-3.76,15.213-7.939,15.213-14.082c0-0.379-0.029-0.768-0.088-1.162l-1.193-7.314c-0.975-5.654-1.697-9.857-1.697-17.309
			c0-0.598,0.004-1.217,0.014-1.86C115.689,106.859,116.56,95.342,121.384,88.129z"/>
	</g>
	<path fill="#B2B2B2" stroke="#8C8C8C" d="M92.529,106.895v5.375c-4.875,0-5.875,36.75-5.875,36.75s2.375-0.5,2.25,3
		s-2.625,4-5.251,4h-0.125c-2.625,0-5.125-0.5-5.25-4s2.25-3,2.25-3s-1-36.75-5.875-36.75v-5.375H92.529z"/>
	<path fill="#FF7F00" stroke="#E87F00" d="M92.529,106.895H74.653c0,0-1.938-0.688-1.938-3.375s0.875-3.25,3.375-3.938
		s4.625-9.313-5.063-9.625c-0.499-0.016,25.126-3.134,25.126,10.125C96.154,107.02,92.529,106.895,92.529,106.895z"/>
</g>
</svg>
