<?xml version="1.0" encoding="utf-8"?>
<!-- Generator: Adobe Illustrator 12.0.0, SVG Export Plug-In . SVG Version: 6.00 Build 51448)  -->
<!DOCTYPE svg PUBLIC "-//W3C//DTD SVG 1.1//EN" "http://www.w3.org/Graphics/SVG/1.1/DTD/svg11.dtd" [
	<!ENTITY ns_svg "http://www.w3.org/2000/svg">
	<!ENTITY ns_xlink "http://www.w3.org/1999/xlink">
]>
<svg  version="1.1" id="Layer_2" xmlns="&ns_svg;" xmlns:xlink="&ns_xlink;" width="151.667" height="277.855"
	 viewBox="0 0 151.667 277.855" overflow="visible" enable-background="new 0 0 151.667 277.855" xml:space="preserve">
<polygon fill="#BCBEC0" points="150.167,92.355 150.167,184.355 150.167,276.355 75.833,276.355 1.5,276.355 1.5,184.355 
	1.5,92.355 75.833,2.355 "/>
<path fill="#034EA2" d="M9.5,95.232c0,5.398,0,159.786,0,173.124c12.741,0,119.925,0,132.667,0c0-13.338,0-167.726,0-173.124
	c-3.188-3.861-56.238-68.091-66.333-80.314C65.738,27.141,12.689,91.371,9.5,95.232z"/>
<polygon fill="#BCBEC0" points="150.167,214.355 75.833,124.355 1.5,214.355 1.5,197.355 75.833,107.355 150.167,197.355 "/>
<polygon fill="none" stroke="#034EA2" stroke-width="3" points="150.167,92.355 150.167,184.355 150.167,276.355 75.833,276.355 
	1.5,276.355 1.5,184.355 1.5,92.355 75.833,2.355 "/>
</svg>
