<?xml version="1.0" encoding="UTF-8" standalone="no"?>
<!-- Created with Inkscape (http://www.inkscape.org/) -->

<svg
   width="108.27468mm"
   height="111.26978mm"
   viewBox="0 0 108.27468 111.26978"
   version="1.1"
   id="svg1"
   xml:space="preserve"
   sodipodi:docname="aefb.svg"
   inkscape:version="1.3.2 (091e20e, 2023-11-25, custom)"
   xmlns:inkscape="http://www.inkscape.org/namespaces/inkscape"
   xmlns:sodipodi="http://sodipodi.sourceforge.net/DTD/sodipodi-0.dtd"
   xmlns:xlink="http://www.w3.org/1999/xlink"
   xmlns="http://www.w3.org/2000/svg"
   xmlns:svg="http://www.w3.org/2000/svg"
   xmlns:rdf="http://www.w3.org/1999/02/22-rdf-syntax-ns#"
   xmlns:cc="http://creativecommons.org/ns#"
   xmlns:dc="http://purl.org/dc/elements/1.1/"><title
     id="title4">AEF Badge</title><sodipodi:namedview
     id="namedview1"
     pagecolor="#505050"
     bordercolor="#eeeeee"
     borderopacity="1"
     inkscape:showpageshadow="0"
     inkscape:pageopacity="0"
     inkscape:pagecheckerboard="0"
     inkscape:deskcolor="#505050"
     inkscape:document-units="mm"
     inkscape:zoom="1.28"
     inkscape:cx="255.85938"
     inkscape:cy="185.15625"
     inkscape:window-width="1350"
     inkscape:window-height="1032"
     inkscape:window-x="52"
     inkscape:window-y="0"
     inkscape:window-maximized="0"
     inkscape:current-layer="layer1"
     showguides="false" /><defs
     id="defs1"><inkscape:path-effect
       effect="mirror_symmetry"
       start_point="104.90316,91.467285"
       end_point="104.90316,114.10156"
       center_point="104.90316,102.78442"
       id="path-effect17"
       is_visible="true"
       lpeversion="1.2"
       lpesatellites=""
       mode="free"
       discard_orig_path="false"
       fuse_paths="true"
       oposite_fuse="false"
       split_items="false"
       split_open="false"
       link_styles="false" /><inkscape:path-effect
       effect="mirror_symmetry"
       start_point="106.22398,191.83897"
       end_point="106.22398,201.65028"
       center_point="106.22398,196.74462"
       id="path-effect16"
       is_visible="true"
       lpeversion="1.2"
       lpesatellites=""
       mode="free"
       discard_orig_path="false"
       fuse_paths="true"
       oposite_fuse="false"
       split_items="false"
       split_open="false"
       link_styles="false" /><inkscape:path-effect
       effect="mirror_symmetry"
       start_point="106.22398,191.83897"
       end_point="106.22398,201.65028"
       center_point="106.22398,196.74462"
       id="path-effect15"
       is_visible="true"
       lpeversion="1.2"
       lpesatellites=""
       mode="free"
       discard_orig_path="false"
       fuse_paths="true"
       oposite_fuse="false"
       split_items="false"
       split_open="false"
       link_styles="false" /><inkscape:path-effect
       effect="mirror_symmetry"
       start_point="105,90.85008"
       end_point="105,202.11986"
       center_point="105,146.48497"
       id="path-effect14"
       is_visible="true"
       lpeversion="1.2"
       lpesatellites=""
       mode="vertical"
       discard_orig_path="false"
       fuse_paths="false"
       oposite_fuse="false"
       split_items="false"
       split_open="false"
       link_styles="false" /><inkscape:path-effect
       effect="mirror_symmetry"
       start_point="100.743,113.52913"
       end_point="100.743,142.63925"
       center_point="100.743,128.08419"
       id="path-effect13"
       is_visible="true"
       lpeversion="1.2"
       lpesatellites=""
       mode="free"
       discard_orig_path="false"
       fuse_paths="true"
       oposite_fuse="false"
       split_items="false"
       split_open="false"
       link_styles="false" /><inkscape:path-effect
       effect="mirror_symmetry"
       start_point="100.743,114.04589"
       end_point="100.743,142.63925"
       center_point="100.743,128.34257"
       id="path-effect12"
       is_visible="true"
       lpeversion="1.2"
       lpesatellites=""
       mode="free"
       discard_orig_path="false"
       fuse_paths="false"
       oposite_fuse="false"
       split_items="false"
       split_open="false"
       link_styles="false" /><inkscape:path-effect
       effect="mirror_symmetry"
       start_point="100.56227,126.5039"
       end_point="100.56227,194.31182"
       center_point="100.56227,160.40786"
       id="path-effect11"
       is_visible="true"
       lpeversion="1.2"
       lpesatellites=""
       mode="free"
       discard_orig_path="false"
       fuse_paths="true"
       oposite_fuse="false"
       split_items="false"
       split_open="false"
       link_styles="false" /><inkscape:path-effect
       effect="mirror_symmetry"
       start_point="104.75065,0"
       end_point="104.75065,297"
       center_point="104.75065,148.5"
       id="path-effect10"
       is_visible="true"
       lpeversion="1.2"
       lpesatellites=""
       mode="free"
       discard_orig_path="false"
       fuse_paths="false"
       oposite_fuse="false"
       split_items="false"
       split_open="false"
       link_styles="false" /><inkscape:path-effect
       effect="mirror_symmetry"
       start_point="100.13921,126.42511"
       end_point="100.13921,194.5956"
       center_point="100.13921,160.51036"
       id="path-effect9"
       is_visible="true"
       lpeversion="1.2"
       lpesatellites=""
       mode="free"
       discard_orig_path="false"
       fuse_paths="true"
       oposite_fuse="false"
       split_items="false"
       split_open="false"
       link_styles="false" /><inkscape:path-effect
       effect="mirror_symmetry"
       start_point="105,139.2079"
       end_point="105,147.9072"
       center_point="105,143.55755"
       id="path-effect8"
       is_visible="true"
       lpeversion="1.2"
       lpesatellites=""
       mode="free"
       discard_orig_path="false"
       fuse_paths="true"
       oposite_fuse="false"
       split_items="false"
       split_open="false"
       link_styles="false" /><inkscape:path-effect
       effect="mirror_symmetry"
       start_point="111.6247,160.55939"
       end_point="111.6247,167.53754"
       center_point="111.6247,164.04847"
       id="path-effect7"
       is_visible="true"
       lpeversion="1.2"
       lpesatellites=""
       mode="free"
       discard_orig_path="false"
       fuse_paths="true"
       oposite_fuse="false"
       split_items="false"
       split_open="false"
       link_styles="false" /><inkscape:path-effect
       effect="mirror_symmetry"
       start_point="105,147.57209"
       end_point="105,161.92405"
       center_point="105,154.74807"
       id="path-effect6"
       is_visible="true"
       lpeversion="1.2"
       lpesatellites=""
       mode="free"
       discard_orig_path="false"
       fuse_paths="true"
       oposite_fuse="false"
       split_items="false"
       split_open="false"
       link_styles="false" /><inkscape:path-effect
       effect="mirror_symmetry"
       start_point="105,0"
       end_point="105,297"
       center_point="105,148.5"
       id="path-effect5"
       is_visible="true"
       lpeversion="1.2"
       lpesatellites=""
       mode="vertical"
       discard_orig_path="false"
       fuse_paths="false"
       oposite_fuse="false"
       split_items="false"
       split_open="false"
       link_styles="false" /><inkscape:path-effect
       effect="mirror_symmetry"
       start_point="111.6247,160.55939"
       end_point="111.6247,167.53754"
       center_point="111.6247,164.04847"
       id="path-effect4"
       is_visible="true"
       lpeversion="1.2"
       lpesatellites=""
       mode="free"
       discard_orig_path="false"
       fuse_paths="true"
       oposite_fuse="false"
       split_items="false"
       split_open="false"
       link_styles="false" /><inkscape:path-effect
       effect="mirror_symmetry"
       start_point="111.6247,160.55939"
       end_point="111.6247,167.55995"
       center_point="111.6247,164.05967"
       id="path-effect3"
       is_visible="true"
       lpeversion="1.2"
       lpesatellites=""
       mode="free"
       discard_orig_path="false"
       fuse_paths="true"
       oposite_fuse="false"
       split_items="false"
       split_open="false"
       link_styles="false" /><inkscape:path-effect
       effect="mirror_symmetry"
       start_point="111.6247,160.55939"
       end_point="111.6247,167.26097"
       center_point="111.6247,163.91018"
       id="path-effect2"
       is_visible="true"
       lpeversion="1.2"
       lpesatellites=""
       mode="free"
       discard_orig_path="false"
       fuse_paths="false"
       oposite_fuse="false"
       split_items="false"
       split_open="false"
       link_styles="false" /><inkscape:path-effect
       effect="mirror_symmetry"
       start_point="111.6247,160.49481"
       end_point="111.6247,167.03497"
       center_point="111.6247,163.76489"
       id="path-effect1"
       is_visible="true"
       lpeversion="1.2"
       lpesatellites=""
       mode="free"
       discard_orig_path="false"
       fuse_paths="true"
       oposite_fuse="false"
       split_items="false"
       split_open="false"
       link_styles="false" /></defs><g
     inkscape:label="Layer 1"
     inkscape:groupmode="layer"
     id="layer1"
     transform="translate(-50.862658,-90.85008)"><path
       style="fill:#7e6925;fill-opacity:1;stroke:#736c51;stroke-width:0.946999;stroke-linecap:round;stroke-dasharray:none;stroke-opacity:1"
       d="m 95.084634,114.10156 c 0,0 0.301213,-4.46511 0.671795,-6.53706 0.567947,-3.17545 2.066553,-7.15584 3.669027,-10.774543 0.522221,-1.179279 5.477704,-5.322672 5.477704,-5.322672 0,0 4.95548,4.143393 5.4777,5.322672 1.60248,3.618703 3.10108,7.599093 3.66903,10.774543 0.37058,2.07195 0.6718,6.53706 0.6718,6.53706"
       id="path16"
       sodipodi:nodetypes="cssc"
       inkscape:path-effect="#path-effect17"
       inkscape:original-d="m 95.084634,114.10156 c 0,0 0.301213,-4.46511 0.671795,-6.53706 0.567947,-3.17545 2.066553,-7.15584 3.669027,-10.774543 0.522221,-1.179279 5.477704,-5.322672 5.477704,-5.322672" /><path
       style="fill:#7e6925;fill-opacity:1;stroke:#736c51;stroke-width:0.946999;stroke-linecap:round;stroke-dasharray:none;stroke-opacity:1"
       d="m 95.024235,191.83897 c 3.580993,2.17417 1.187574,3.47137 1.187574,3.47137 0,0 -5.70054,2.24866 -4.331112,4.49658 1.369425,2.24793 3.074746,1.80868 3.074746,1.80868 0,0 2.557981,-0.28422 5.787757,-3.04891 3.22978,-2.76469 3.97087,-2.76302 5.48078,-2.89132 1.50991,0.1283 2.251,0.12663 5.48078,2.89132 3.22978,2.76469 5.78776,3.04891 5.78776,3.04891 0,0 1.70532,0.43925 3.07474,-1.80868 1.36943,-2.24792 -4.33111,-4.49658 -4.33111,-4.49658 0,0 -2.39342,-1.2972 1.18757,-3.47137"
       id="path15"
       sodipodi:nodetypes="ccscsc"
       inkscape:path-effect="#path-effect16"
       inkscape:original-d="m 95.024235,191.83897 c 3.580993,2.17417 1.187574,3.47137 1.187574,3.47137 0,0 -5.70054,2.24866 -4.331112,4.49658 1.369425,2.24793 3.074746,1.80868 3.074746,1.80868 0,0 2.557981,-0.28422 5.787757,-3.04891 3.22978,-2.76469 3.97087,-2.76302 5.48078,-2.89132" /><g
       id="g13"
       inkscape:path-effect="#path-effect14"><path
         style="fill:#7e6925;fill-opacity:1;stroke:#736c51;stroke-width:0.946999;stroke-linecap:round;stroke-dasharray:none;stroke-opacity:1;paint-order:normal"
         d="m 100.13994,190.48696 c -9.22945,-6.3176 -19.570688,-5.50283 -20.370337,-2.6614 -0.809411,2.87612 11.061749,9.67285 20.370337,2.6614 z m 9.72012,0 c 9.22945,-6.3176 19.57069,-5.50283 20.37033,-2.6614 0.80942,2.87612 -11.06174,9.67285 -20.37033,2.6614 z"
         id="path13"
         sodipodi:nodetypes="csc"
         inkscape:original-d="m 100.13994,190.48696 c -9.22945,-6.3176 -19.570688,-5.50283 -20.370337,-2.6614 -0.809411,2.87612 11.061749,9.67285 20.370337,2.6614 z" /><path
         style="fill:#7e6925;fill-opacity:1;stroke:#736c51;stroke-width:0.946999;stroke-linecap:round;stroke-dasharray:none;stroke-opacity:1;paint-order:normal"
         d="m 102.11502,187.59187 c -7.062754,-8.6725 -17.211448,-10.81937 -18.782967,-8.32067 -1.590703,2.5292 7.869971,12.40926 18.782967,8.32067 z m 5.76996,0 c 7.06275,-8.6725 17.21145,-10.81937 18.78296,-8.32067 1.59071,2.5292 -7.86997,12.40926 -18.78296,8.32067 z"
         id="path13-7"
         sodipodi:nodetypes="csc"
         inkscape:original-d="m 102.11502,187.59187 c -7.062754,-8.6725 -17.211448,-10.81937 -18.782967,-8.32067 -1.590703,2.5292 7.869971,12.40926 18.782967,8.32067 z" /><path
         style="fill:#7e6925;fill-opacity:1;stroke:#736c51;stroke-width:0.946997;stroke-linecap:round;stroke-dasharray:none;stroke-opacity:1;paint-order:normal"
         d="m 88.44659,187.61597 c -6.812796,-9.17041 -16.285613,-11.23196 -17.665549,-8.50025 -1.396781,2.76506 7.675735,13.17724 17.665549,8.50025 z m 33.10682,0 c 6.81279,-9.17041 16.28561,-11.23196 17.66555,-8.50025 1.39678,2.76506 -7.67574,13.17724 -17.66555,8.50025 z"
         id="path13-3"
         sodipodi:nodetypes="csc"
         inkscape:transform-center-x="-4.9051799"
         inkscape:transform-center-y="7.7972261"
         inkscape:original-d="m 88.44659,187.61597 c -6.812796,-9.17041 -16.285613,-11.23196 -17.665549,-8.50025 -1.396781,2.76506 7.675735,13.17724 17.665549,8.50025 z" /><path
         style="fill:#7e6925;fill-opacity:1;stroke:#736c51;stroke-width:0.946997;stroke-linecap:round;stroke-dasharray:none;stroke-opacity:1;paint-order:normal"
         d="m 82.306569,179.43791 c -7.645315,-8.4888 -17.270065,-9.65002 -18.386886,-6.8006 -1.130455,2.8842 8.881381,12.39667 18.386886,6.8006 z m 45.386861,0 c 7.64531,-8.4888 17.27006,-9.65002 18.38688,-6.8006 1.13046,2.8842 -8.88138,12.39667 -18.38688,6.8006 z"
         id="path13-3-0"
         sodipodi:nodetypes="csc"
         inkscape:transform-center-x="-5.6408083"
         inkscape:transform-center-y="7.4262787"
         inkscape:original-d="m 82.306569,179.43791 c -7.645315,-8.4888 -17.270065,-9.65002 -18.386886,-6.8006 -1.130455,2.8842 8.881381,12.39667 18.386886,6.8006 z" /><path
         style="fill:#7e6925;fill-opacity:1;stroke:#736c51;stroke-width:0.946997;stroke-linecap:round;stroke-dasharray:none;stroke-opacity:1;paint-order:normal"
         d="m 90.894168,185.15911 c -4.319083,-11.01124 -12.928929,-16.10039 -14.921879,-13.94247 -2.017279,2.18426 4.172943,15.12668 14.921879,13.94247 z m 28.211662,0 c 4.31908,-11.01124 12.92893,-16.10039 14.92188,-13.94247 2.01728,2.18426 -4.17294,15.12668 -14.92188,13.94247 z"
         id="path13-7-9"
         sodipodi:nodetypes="csc"
         inkscape:transform-center-x="-8.6064983"
         inkscape:transform-center-y="2.3779554"
         inkscape:original-d="m 90.894168,185.15911 c -4.319083,-11.01124 -12.928929,-16.10039 -14.921879,-13.94247 -2.017279,2.18426 4.172943,15.12668 14.921879,13.94247 z" /><path
         style="fill:#7e6925;fill-opacity:1;stroke:#736c51;stroke-width:0.946997;stroke-linecap:round;stroke-dasharray:none;stroke-opacity:1;paint-order:normal"
         d="m 72.909448,175.66887 c -4.669276,-10.42634 -13.472441,-14.48693 -15.41028,-12.11813 -1.961495,2.39772 4.645626,14.52497 15.41028,12.11813 z m 64.181102,0 c 4.66928,-10.42634 13.47244,-14.48693 15.41028,-12.11813 1.96149,2.39772 -4.64563,14.52497 -15.41028,12.11813 z"
         id="path13-3-3"
         sodipodi:nodetypes="csc"
         inkscape:transform-center-x="-3.0093026"
         inkscape:transform-center-y="8.4829223"
         inkscape:original-d="m 72.909448,175.66887 c -4.669276,-10.42634 -13.472441,-14.48693 -15.41028,-12.11813 -1.961495,2.39772 4.645626,14.52497 15.41028,12.11813 z" /><path
         style="fill:#7e6925;fill-opacity:1;stroke:#736c51;stroke-width:0.946997;stroke-linecap:round;stroke-dasharray:none;stroke-opacity:1;paint-order:normal"
         d="m 76.298373,178.33378 c 1.193626,-11.76763 -4.136524,-20.2304 -6.895627,-19.22253 -2.792785,1.02018 -3.205338,15.36085 6.895627,19.22253 z m 57.403247,0 c -1.19362,-11.76763 4.13653,-20.2304 6.89563,-19.22253 2.79279,1.02018 3.20534,15.36085 -6.89563,19.22253 z"
         id="path13-7-9-5"
         sodipodi:nodetypes="csc"
         inkscape:transform-center-x="-5.8716719"
         inkscape:transform-center-y="6.2782885"
         inkscape:original-d="m 76.298373,178.33378 c 1.193626,-11.76763 -4.136524,-20.2304 -6.895627,-19.22253 -2.792785,1.02018 -3.205338,15.36085 6.895627,19.22253 z" /><path
         style="fill:#7e6925;fill-opacity:1;stroke:#736c51;stroke-width:0.946998;stroke-linecap:round;stroke-dasharray:none;stroke-opacity:1;paint-order:normal"
         d="m 65.640781,165.88603 c -2.259898,-10.01509 -9.687324,-15.26849 -11.984778,-13.57398 -2.325499,1.7152 1.405538,13.59193 11.984778,13.57398 z m 78.718439,0 c 2.25989,-10.01509 9.68732,-15.26849 11.98477,-13.57398 2.3255,1.7152 -1.40553,13.59193 -11.98477,13.57398 z"
         id="path13-3-3-7"
         sodipodi:nodetypes="csc"
         inkscape:transform-center-x="-0.89288487"
         inkscape:transform-center-y="8.020456"
         inkscape:original-d="m 65.640781,165.88603 c -2.259898,-10.01509 -9.687324,-15.26849 -11.984778,-13.57398 -2.325499,1.7152 1.405538,13.59193 11.984778,13.57398 z" /><path
         style="fill:#7e6925;fill-opacity:1;stroke:#736c51;stroke-width:0.946998;stroke-linecap:round;stroke-dasharray:none;stroke-opacity:1;paint-order:normal"
         d="m 68.276396,168.87111 c 3.508196,-10.05145 0.230125,-18.47878 -2.560839,-18.13254 -2.825033,0.35046 -6.123503,12.80156 2.560839,18.13254 z m 73.447204,0 c -3.50819,-10.05145 -0.23012,-18.47878 2.56084,-18.13254 2.82503,0.35046 6.1235,12.80156 -2.56084,18.13254 z"
         id="path13-7-9-5-2"
         sodipodi:nodetypes="csc"
         inkscape:transform-center-x="-4.1841037"
         inkscape:transform-center-y="6.8029528"
         inkscape:original-d="m 68.276396,168.87111 c 3.508196,-10.05145 0.230125,-18.47878 -2.560839,-18.13254 -2.825033,0.35046 -6.123503,12.80156 2.560839,18.13254 z" /><path
         style="fill:#7e6925;fill-opacity:1;stroke:#736c51;stroke-width:0.946999;stroke-linecap:round;stroke-dasharray:none;stroke-opacity:1;paint-order:normal"
         d="m 63.969968,155.53927 c -1.970853,-7.61201 -8.448299,-11.60487 -10.451905,-10.31695 -2.028064,1.30365 1.225768,10.33059 10.451905,10.31695 z m 82.060062,0 c 1.97085,-7.61201 8.4483,-11.60487 10.4519,-10.31695 2.02807,1.30365 -1.22576,10.33059 -10.4519,10.31695 z"
         id="path13-3-3-7-0"
         sodipodi:nodetypes="csc"
         inkscape:transform-center-x="-0.77868625"
         inkscape:transform-center-y="6.0959748"
         inkscape:original-d="m 63.969968,155.53927 c -1.970853,-7.61201 -8.448299,-11.60487 -10.451905,-10.31695 -2.028064,1.30365 1.225768,10.33059 10.451905,10.31695 z" /><path
         style="fill:#7e6925;fill-opacity:1;stroke:#736c51;stroke-width:0.946999;stroke-linecap:round;stroke-dasharray:none;stroke-opacity:1;paint-order:normal"
         d="m 66.268483,157.80808 c 3.059493,-7.63963 0.200692,-14.04485 -2.233304,-13.78169 -2.463706,0.26637 -5.340296,9.72987 2.233304,13.78169 z m 77.463027,0 c -3.05949,-7.63963 -0.20069,-14.04485 2.23331,-13.78169 2.4637,0.26637 5.34029,9.72987 -2.23331,13.78169 z"
         id="path13-7-9-5-2-2"
         sodipodi:nodetypes="csc"
         inkscape:transform-center-x="-3.6489528"
         inkscape:transform-center-y="5.1706029"
         inkscape:original-d="m 66.268483,157.80808 c 3.059493,-7.63963 0.200692,-14.04485 -2.233304,-13.78169 -2.463706,0.26637 -5.340296,9.72987 2.233304,13.78169 z" /><path
         style="fill:#7e6925;fill-opacity:1;stroke:#736c51;stroke-width:0.946999;stroke-linecap:round;stroke-dasharray:none;stroke-opacity:1;paint-order:normal"
         d="m 62.619244,118.52572 c 5.247467,13.46604 0.328953,27.87002 -3.85225,28.74298 -4.232241,0.8836 -9.163435,-16.3216 3.85225,-28.74298 z m 84.761506,0 c -5.24746,13.46604 -0.32895,27.87002 3.85225,28.74298 4.23224,0.8836 9.16344,-16.3216 -3.85225,-28.74298 z"
         id="path13-7-9-5-2-2-1"
         sodipodi:nodetypes="csc"
         inkscape:transform-center-x="-6.2741"
         inkscape:transform-center-y="-12.768775"
         inkscape:original-d="m 62.619244,118.52572 c 5.247467,13.46604 0.328953,27.87002 -3.85225,28.74298 -4.232241,0.8836 -9.163435,-16.3216 3.85225,-28.74298 z" /><path
         style="fill:#7e6925;fill-opacity:1;stroke:#736c51;stroke-width:0.946999;stroke-linecap:round;stroke-dasharray:none;stroke-opacity:1;paint-order:normal"
         d="m 69.969215,113.95614 c -0.544455,4.81402 -3.96267,8.62477 -5.215455,8.36219 -1.268068,-0.26581 -0.09492,-6.19114 5.215455,-8.36219 z m 70.061565,0 c 0.54446,4.81402 3.96267,8.62477 5.21546,8.36219 1.26807,-0.26581 0.0949,-6.19114 -5.21546,-8.36219 z"
         id="path13-7-9-5-2-2-1-8"
         sodipodi:nodetypes="csc"
         inkscape:transform-center-x="-3.6202239"
         inkscape:transform-center-y="-2.9890139"
         inkscape:original-d="m 69.969215,113.95614 c -0.544455,4.81402 -3.96267,8.62477 -5.215455,8.36219 -1.268068,-0.26581 -0.09492,-6.19114 5.215455,-8.36219 z" /><path
         style="fill:#7e6925;fill-opacity:1;stroke:#736c51;stroke-width:0.947;stroke-linecap:round;stroke-dasharray:none;stroke-opacity:1;paint-order:normal"
         d="m 70.327371,117.92884 c -0.592262,3.22062 -3.072967,5.63023 -3.904405,5.39454 -0.841579,-0.23858 0.226179,-4.17913 3.904405,-5.39454 z m 69.345259,0 c 0.59226,3.22062 3.07296,5.63023 3.9044,5.39454 0.84158,-0.23858 -0.22618,-4.17913 -3.9044,-5.39454 z"
         id="path13-7-9-5-2-2-1-8-6"
         sodipodi:nodetypes="csc"
         inkscape:transform-center-x="-2.6004939"
         inkscape:transform-center-y="-1.8314771"
         inkscape:original-d="m 70.327371,117.92884 c -0.592262,3.22062 -3.072967,5.63023 -3.904405,5.39454 -0.841579,-0.23858 0.226179,-4.17913 3.904405,-5.39454 z" /></g><path
       style="display:inline;fill:#000000;fill-opacity:1;stroke:#736c51;stroke-width:0.946999;stroke-linecap:round;stroke-dasharray:none;stroke-opacity:1;paint-order:normal"
       d="m 100.56254,194.30446 c 0,0 2.69672,0.0696 3.61708,-0.21924 0.83909,-0.26333 1.91858,-1.16995 2.16522,-1.90944 0.40661,-1.2191 -0.0811,-3.98388 0.41861,-4.38363 9.46667,-7.57334 13.18208,-15.34616 18.73194,-26.14459 5.3422,-10.39439 8.15054,-28.35636 4.68742,-29.59807 -14.98472,-5.3728 -29.62054,-5.54559 -29.62054,-5.54559 0,0 -14.635824,0.17279 -29.62054,5.54559 -3.463123,1.24171 -0.654783,19.20368 4.687419,29.59807 5.54986,10.79843 9.26527,18.57125 18.731945,26.14459 0.499682,0.39975 0.012,3.16453 0.418605,4.38363 0.24664,0.73949 1.32613,1.64611 2.165217,1.90944 0.920368,0.28884 3.617084,0.21924 3.617084,0.21924"
       id="path10"
       sodipodi:nodetypes="csssssc"
       inkscape:original-d="m 100.56227,126.5039 c 0,0 -14.635824,0.17279 -29.62054,5.54559 -3.463123,1.24171 -0.654783,19.20368 4.687419,29.59807 5.54986,10.79843 9.26527,18.57125 18.731945,26.14459 0.499682,0.39975 0.012,3.16453 0.418605,4.38363 0.24664,0.73949 1.32613,1.64611 2.165217,1.90944 0.920368,0.28884 3.617084,0.21924 3.617084,0.21924"
       inkscape:path-effect="#path-effect11"
       transform="translate(4.43773)" /><path
       style="display:inline;fill:#7e6925;fill-opacity:0.4642;stroke:none;stroke-width:0.347133;stroke-linecap:round"
       d="m 79.478552,149.48178 0.733861,1.27109"
       id="path4"
       inkscape:label="path4" /><g
       id="g12"
       transform="translate(2.7050467,-0.72347005)"
       style="display:inline"><path
         style="display:inline;fill:#7e6925;fill-opacity:1;stroke:none;stroke-width:0.347133;stroke-linecap:round;stroke-opacity:1"
         d="m 114.0467,160.5594 -2.8e-4,-1e-5 c 0,0 -0.12116,2.22053 0.78699,3.35901 0.9593,1.20222 1.97853,0.97551 3.94453,1.17672 0.0822,0.008 0.47044,1.09991 0.48924,1.26295 0,0 -1.04319,0.67317 -1.632,0.80353 -1.9487,0.43142 -6.01048,0.37332 -6.01048,0.37332 0,0 -4.06178,0.0581 -6.01048,-0.37332 -0.58881,-0.13036 -1.632,-0.80353 -1.632,-0.80353 0.0188,-0.16304 0.40704,-1.25495 0.48924,-1.26295 1.966,-0.20121 2.98523,0.0255 3.94453,-1.17672 0.90815,-1.13848 0.78699,-3.35901 0.78699,-3.35901 l -2.8e-4,1e-5"
         id="path1"
         sodipodi:nodetypes="csscscc"
         transform="translate(-6.6247)"
         inkscape:path-effect="#path-effect7"
         inkscape:original-d="m 111.6247,167.53492 c 0,0 -4.06178,0.0581 -6.01048,-0.37332 -0.58881,-0.13036 -1.632,-0.80353 -1.632,-0.80353 0.0188,-0.16304 0.40704,-1.25495 0.48924,-1.26295 1.966,-0.20121 2.98523,0.0255 3.94453,-1.17672 0.90815,-1.13848 0.78699,-3.35901 0.78699,-3.35901 l -2.8e-4,1e-5" /><path
         id="path3"
         style="display:inline;fill:#7e6925;fill-opacity:1;stroke:none;stroke-width:0.347133;stroke-linecap:round"
         d="m 114.21932,160.14437 c 4.17828,-0.15982 10.29,-4.88364 10.70784,-7.7548 0.22094,-1.51823 0.40156,-3.43292 -0.48576,-5.08381 -0.93139,-1.73289 -3.19782,-2.96107 -4.52668,-3.00158 -2.44253,-0.0745 -5.5038,2.36762 -4.53783,5.27938 0.4725,1.42426 5.05146,3.62306 1.92631,4.2089 -2.28293,0.42796 -2.92834,-1.07944 -4.12318,-2.03195 -1.19477,-0.95246 -2.48628,-3.53546 -2.24412,-3.98751 0.24217,-0.45205 -5.9359,-0.50379 -5.9359,-0.50379 0,0 -6.178079,0.0517 -5.935905,0.50379 0.24217,0.45205 -1.049409,3.03497 -2.24412,3.98751 -1.19471,0.95254 -1.701434,1.57989 -5.674219,1.64839 -3.972785,0.0685 -5.114391,-1.9179 -5.228553,-2.05489 -0.11416,-0.13699 -1.050277,-0.77629 -2.237544,0.20549 -1.18727,0.98178 7.922738,8.42505 12.101015,8.58487 4.178273,0.15982 8.275916,0.77399 9.219326,1.78539 0.94341,-1.02282 5.04106,-1.62557 9.21932,-1.78539 z"
         sodipodi:nodetypes="sssssssscsssssscs" /><path
         style="fill:#7e6925;fill-opacity:1;stroke:none;stroke-width:0.347133;stroke-linecap:round"
         d="m 79.489027,149.62887 c -0.06377,0.2052 0.301572,0.84743 0.772297,1.10423 0.237392,0.1295 0.49206,0.1078 0.760465,0.0748 0.190073,-0.0233 0.403646,-0.15966 0.599313,-0.15866 0.37478,0.002 0.894639,0.44927 0.894639,0.44927 l 1.227,0.35518 1.937369,-0.0969 c 0,0 0.196361,-0.18545 0.317353,-0.27331 0.267343,-0.19412 0.877357,-0.32404 0.877357,-0.32404 l -0.08073,-0.48435 -1.307724,0.29061 -2.631591,-0.16145 -1.259289,-0.66193 -0.791091,-0.0646 -0.64579,-0.37133 c 0,0 -0.566015,-0.0109 -0.669578,0.32243 z"
         id="path5"
         sodipodi:nodetypes="sssscccscccccccs" /><path
         style="fill:#7e6925;fill-opacity:1;stroke:none;stroke-width:0.347133;stroke-linecap:round"
         d="m 93.289344,135.75 c 0.97622,0.20307 1.407911,1.10176 2.295658,1.30638 1.081247,0.24922 3.575346,-0.75928 3.575346,-0.75928 l -0.06295,0.91423 c 0,0 -2.01923,0.56012 -2.727651,1.16667 -0.588342,0.50375 -1.04789,1.17248 -1.582855,1.74884 -0.712873,0.76804 -1.941923,1.0016 -2.698941,1.76646 -0.455922,0.46065 -0.701464,1.23137 -1.152963,1.69635 -0.381492,0.39289 -0.984132,0.47782 -1.445192,0.83398 -1.035261,0.79972 -1.715141,1.98064 -2.784728,2.76514 -0.380689,0.27923 -1.428573,0.53556 -1.428573,0.53556 l 1.227,0.64578 -0.520549,2.41847 -4.96866,-0.42956 c 0,0 -1.012392,-1.06322 -1.113987,-1.74674 -0.0635,-0.42719 0.227224,-0.80223 0.308372,-1.26206 0.137614,-0.77978 -0.316491,-1.60893 -0.08674,-2.40833 0.209913,-0.73038 0.665778,-1.34248 1.334951,-1.77201 1.021643,-0.65576 2.686742,-0.43292 3.49672,-1.09621 0.76962,-0.63024 0.178252,-1.8291 0.836278,-2.54695 0.601939,-0.65667 1.385299,-0.66967 2.102061,-1.19863 0.311205,-0.22966 0.438384,-0.60258 0.778866,-0.86006 1.309423,-0.99022 3.047893,-2.04475 4.618541,-1.71803 z"
         id="path6"
         sodipodi:nodetypes="ssccssssssccccssssssssss" /><path
         style="fill:#7e6925;fill-opacity:1;stroke:none;stroke-width:0.347133;stroke-linecap:round"
         d="m 104.70508,139.20898 c -0.53836,0.0177 -1.64766,0.20144 -1.9043,1.38086 -0.22345,1.02691 0.52353,1.88331 0.20117,2.01563 -2.22821,0.9146 -2.69479,1.76914 -3.398434,3.74609 -0.117379,0.32978 -0.891119,0.0259 -1.138672,0.27344 -0.349801,0.3498 -0.214057,1.17863 0.205078,1.20703 2.495388,0.16887 6.330078,0.004 6.330078,0.004 0,0 3.83469,0.16496 6.33008,-0.004 0.41913,-0.0284 0.55488,-0.85723 0.20508,-1.20703 -0.24756,-0.24756 -1.0213,0.0563 -1.13868,-0.27344 -0.70364,-1.97695 -1.17022,-2.83149 -3.39843,-3.74609 -0.32236,-0.13232 0.42462,-0.98872 0.20117,-2.01563 C 106.85704,139.01728 105,139.2168 105,139.2168 c 0,0 -0.11547,-0.0137 -0.29492,-0.008 z"
         id="path7"
         sodipodi:nodetypes="cssssscc"
         inkscape:path-effect="#path-effect8"
         inkscape:original-d="m 105,147.8351 c 0,0 -3.83474,0.16487 -6.330134,-0.004 -0.419135,-0.0284 -0.555241,-0.85676 -0.20544,-1.20656 0.247553,-0.24756 1.021287,0.0563 1.138666,-0.27348 0.703648,-1.97695 1.171518,-2.83194 3.399738,-3.74654 0.32236,-0.13232 -0.42561,-0.98826 -0.20216,-2.01517 0.34218,-1.57257 2.19933,-1.3733 2.19933,-1.3733 z" /></g><path
       style="display:inline;fill:#000000;fill-opacity:1;stroke:#736c51;stroke-width:0.946999;stroke-linecap:round;stroke-dasharray:none;stroke-opacity:1;paint-order:normal"
       d="m 100.743,126.76723 c -12.963842,0.34907 -17.22129,2.08367 -23.736061,4.30117 -13.050913,4.44227 -20.15519,9.98338 -24.306304,11.5361 -1.501994,0.56182 -4.221428,-5.7978 -5.599405,-11.15218 -0.830181,-3.22582 21.449331,-11.96547 29.804853,-14.26353 7.526176,-2.06996 10.4348,-2.78156 23.836917,-3.65966 13.40212,0.8781 16.31074,1.5897 23.83692,3.65966 8.35552,2.29806 30.63503,11.03771 29.80485,14.26353 -1.37798,5.35438 -4.09741,11.714 -5.5994,11.15218 -4.15112,-1.55272 -11.2554,-7.09383 -24.30631,-11.5361 -6.51477,-2.2175 -10.77222,-3.9521 -23.73606,-4.30117 z"
       id="path11"
       sodipodi:nodetypes="cssssc"
       transform="translate(4.257)"
       inkscape:path-effect="#path-effect13"
       inkscape:original-d="m 100.743,126.76723 c -12.963842,0.34907 -17.22129,2.08367 -23.736061,4.30117 -13.050913,4.44227 -20.15519,9.98338 -24.306304,11.5361 -1.501994,0.56182 -4.221428,-5.7978 -5.599405,-11.15218 -0.830181,-3.22582 21.449331,-11.96547 29.804853,-14.26353 7.526176,-2.06996 10.4348,-2.78156 23.836917,-3.65966" /><path
       style="display:inline;fill:none;fill-opacity:1;stroke:none;stroke-width:0.946999;stroke-linecap:round;stroke-dasharray:none;stroke-opacity:1;paint-order:normal"
       d="m 69.99494,132.50215 c 15.65409,-6.8761 24.743477,-8.28441 36.72355,-8.32736 11.71578,-0.042 32.89039,6.47428 35.22712,8.47719"
       id="path12"
       sodipodi:nodetypes="csc"
       inkscape:label="textpath" /><text
       xml:space="preserve"
       style="font-size:12.7px;line-height:0;font-family:'Berthold Akzidenz Grotesk';-inkscape-font-specification:'Berthold Akzidenz Grotesk';text-align:center;letter-spacing:1.05833px;word-spacing:0px;direction:rtl;text-anchor:middle;display:inline;fill:#000000;fill-opacity:1;stroke:#736c51;stroke-width:0.946999;stroke-linecap:round;stroke-dasharray:none;stroke-opacity:1;paint-order:normal"
       id="text11"
       x="-72.978699"
       y="0"><textPath
         xlink:href="#path12"
         startOffset="100%"
         id="textPath12"
         style="font-size:12.7px;text-align:start;letter-spacing:1.05833px;baseline-shift:baseline;text-anchor:start"><tspan
           id="tspan11"
           style="font-style:normal;font-variant:normal;font-weight:normal;font-stretch:normal;font-size:12.7px;line-height:0;font-family:AmarilloUSAF;-inkscape-font-specification:AmarilloUSAF;text-align:start;letter-spacing:1.05833px;word-spacing:0px;baseline-shift:baseline;text-anchor:start;fill:#736c51;fill-opacity:1;stroke:none;stroke-width:0.947;stroke-opacity:1"
           dx="0">EXCELLENCE</tspan></textPath></text></g><metadata
     id="metadata4"><rdf:RDF><cc:Work
         rdf:about=""><dc:title>AEF Badge</dc:title></cc:Work></rdf:RDF></metadata></svg>
