<?xml version="1.0" encoding="UTF-8" standalone="no"?>
<!-- Created with Inkscape (http://www.inkscape.org/) -->

<svg
   width="205.14812mm"
   height="215.82022mm"
   viewBox="0 0 205.14812 215.82022"
   version="1.1"
   id="svg1"
   xml:space="preserve"
   inkscape:version="1.3.2 (091e20e, 2023-11-25, custom)"
   sodipodi:docname="hap_cap_insignia.svg"
   xmlns:inkscape="http://www.inkscape.org/namespaces/inkscape"
   xmlns:sodipodi="http://sodipodi.sourceforge.net/DTD/sodipodi-0.dtd"
   xmlns="http://www.w3.org/2000/svg"
   xmlns:svg="http://www.w3.org/2000/svg"
   xmlns:rdf="http://www.w3.org/1999/02/22-rdf-syntax-ns#"
   xmlns:cc="http://creativecommons.org/ns#"
   xmlns:dc="http://purl.org/dc/elements/1.1/"><title
     id="title2">HAP Arnold Optional Enlisted/Officer Service CAP Insignia</title><sodipodi:namedview
     id="namedview1"
     pagecolor="#505050"
     bordercolor="#eeeeee"
     borderopacity="1"
     inkscape:showpageshadow="0"
     inkscape:pageopacity="0"
     inkscape:pagecheckerboard="0"
     inkscape:deskcolor="#505050"
     inkscape:document-units="mm"
     inkscape:zoom="0.72426347"
     inkscape:cx="240.24407"
     inkscape:cy="344.4879"
     inkscape:window-width="1920"
     inkscape:window-height="1009"
     inkscape:window-x="-8"
     inkscape:window-y="-8"
     inkscape:window-maximized="1"
     inkscape:current-layer="layer1" /><defs
     id="defs1"><inkscape:path-effect
       effect="mirror_symmetry"
       start_point="105,41.830979"
       end_point="105,257.6512"
       center_point="105,149.74109"
       id="path-effect3"
       is_visible="true"
       lpeversion="1.2"
       lpesatellites=""
       mode="vertical"
       discard_orig_path="false"
       fuse_paths="false"
       oposite_fuse="false"
       split_items="false"
       split_open="false"
       link_styles="false" /></defs><g
     inkscape:label="Layer 1"
     inkscape:groupmode="layer"
     id="layer1"
     transform="translate(-2.4259418,-41.830979)"><path
       sodipodi:type="star"
       style="display:inline;fill:#cbc3bf;fill-opacity:1;stroke:#6f6868;stroke-width:0.758435;stroke-linecap:round;stroke-dasharray:none;stroke-opacity:1"
       id="path1"
       inkscape:flatsided="false"
       sodipodi:sides="5"
       sodipodi:cx="84.985886"
       sodipodi:cy="94.80188"
       sodipodi:r1="11.174194"
       sodipodi:r2="26.348207"
       sodipodi:arg1="1.0481252"
       sodipodi:arg2="1.6764437"
       inkscape:rounded="0.1"
       inkscape:randomized="0"
       d="m 90.564003,104.48419 c -1.604079,0.92414 -6.515642,16.71421 -8.356561,16.51899 -1.840919,-0.19521 -3.331662,-16.6642 -4.706252,-17.9042 -1.37459,-1.23999 -17.909596,-1.03177 -18.292811,-2.84291 -0.383214,-1.811142 14.819057,-8.318119 15.573593,-10.008612 0.754535,-1.690493 -4.553097,-17.351873 -2.949018,-18.276006 1.604079,-0.924132 12.490343,11.52332 14.331261,11.718535 1.840919,0.195215 15.095625,-9.692276 16.470215,-8.452278 1.37459,1.239997 -7.099597,15.439923 -6.716383,17.251065 0.383215,1.811143 13.882713,11.361716 13.128173,13.052206 -0.75454,1.6905 -16.878137,-1.98092 -18.482217,-1.05679 z"
       inkscape:transform-center-x="-6.3255934"
       inkscape:transform-center-y="-11.2357"
       transform="matrix(2.5553071,1.4983853,-1.4974776,2.5569029,29.62241,-176.93942)" /><circle
       style="display:inline;fill:#cbc3bf;fill-opacity:1;stroke:#6f6868;stroke-width:2.247;stroke-linecap:round;stroke-dasharray:none;stroke-opacity:1"
       id="path2"
       cx="105"
       cy="193.26831"
       r="28.816763" /><path
       style="display:inline;fill:#cbc3bf;fill-opacity:1;stroke:#6f6868;stroke-width:2.247;stroke-linecap:square;stroke-dasharray:none;stroke-opacity:1;paint-order:normal"
       d="m 76.41303,168.92237 c 0.206214,-2.34261 1.12049,-7.67892 1.796654,-10.2565 0.208346,-0.79423 -4.223432,-7.30911 -2.398599,-8.57334 10.954085,-7.58891 15.180459,-8.26928 17.680304,-14.52701 C 96.869118,127.11023 89.178488,116.1225 85.659235,112.9145 16.30694,49.695831 23.454553,42.312662 16.06731,42.993523 11.708042,43.395304 7.5438096,56.308972 6.9501383,58.214028 4.6543155,65.581187 4.0564508,68.06808 3.6198965,80.121767 c -0.2447019,7.72566 0.074718,15.011549 2.8395724,20.127393 0,0 16.9222291,32.29203 25.7527121,48.1641 3.052409,5.48645 9.14392,20.03527 9.14392,20.03527 m 92.230869,0.47384 c -0.20621,-2.34261 -1.12049,-7.67892 -1.79665,-10.2565 -0.20835,-0.79423 4.22343,-7.30911 2.3986,-8.57334 -10.95409,-7.58891 -15.18046,-8.26928 -17.68031,-14.52701 -3.37773,-8.45529 4.3129,-19.44302 7.83216,-22.65102 69.35229,-63.218669 62.20468,-70.601838 69.59192,-69.920977 4.35927,0.401781 8.5235,13.315449 9.11717,15.220505 2.29583,7.367159 2.89369,9.854052 3.33024,21.907739 0.24471,7.72566 -0.0747,15.011549 -2.83957,20.127393 0,0 -16.92223,32.29203 -25.75271,48.1641 -3.05241,5.48645 -9.14392,20.03527 -9.14392,20.03527"
       id="path3"
       sodipodi:nodetypes="csssssscssc"
       inkscape:path-effect="#path-effect3"
       inkscape:original-d="m 76.41303,168.92237 c 0.206214,-2.34261 1.12049,-7.67892 1.796654,-10.2565 0.208346,-0.79423 -4.223432,-7.30911 -2.398599,-8.57334 10.954085,-7.58891 15.180459,-8.26928 17.680304,-14.52701 C 96.869118,127.11023 89.178488,116.1225 85.659235,112.9145 16.30694,49.695831 23.454553,42.312662 16.06731,42.993523 11.708042,43.395304 7.5438096,56.308972 6.9501383,58.214028 4.6543155,65.581187 4.0564508,68.06808 3.6198965,80.121767 c -0.2447019,7.72566 0.074718,15.011549 2.8395724,20.127393 0,0 16.9222291,32.29203 25.7527121,48.1641 3.052409,5.48645 9.14392,20.03527 9.14392,20.03527" /></g><metadata
     id="metadata2"><rdf:RDF><cc:Work
         rdf:about=""><dc:title>HAP Arnold Optional Enlisted/Officer Service CAP Insignia</dc:title></cc:Work></rdf:RDF></metadata></svg>
